# xmcd
#
# Track frame offsets:
#	150
#	16097
#	39516
#	54388
#	71751
#	88118
#	106023
#	122736
#	135611
#	153850
#	171949
#	191817
#	206131
#
# Disc length: 2942 seconds
#
# Revision: 1
# Processed by: cddbd v1.5.2PL0 Copyright (c) Steve Scherf et al.
# Submitted via: audiograbber 1.83.01
#
DISCID=ae0b7c0d
DTITLE=The Country Trail Band - Country Gospel Classics CD1
DYEAR=2006
DGENRE=Christian
TTITLE0=One day at a time
TTITLE1=Wayfaring Stranger
TTITLE2=I'm using my Bible for a road map
TTITLE3=Why me Lord
TTITLE4=I saw the light
TTITLE5=The darkest hour is just befor dawn
TTITLE6=Family Bible
TTITLE7=Put your hand in the hand
TTITLE8=The Middle Man
TTITLE9=Father along
TTITLE10=Will the circle be unbroken
TTITLE11=The family who prays
TTITLE12=Talk about suffering
EXTD=
EXTT0=
EXTT1=
EXTT2=
EXTT3=
EXTT4=
EXTT5=
EXTT6=
EXTT7=
EXTT8=
EXTT9=
EXTT10=
EXTT11=
EXTT12=
PLAYORDER=
